<svg width="41" height="41" viewBox="0 0 41 41" fill="none" xmlns="http://www.w3.org/2000/svg">
<path d="M1 40H40M3.1645 40V22.4695C3.1645 19.2361 6.07 16.626 9.658 16.626H31.3225C34.9105 16.626 37.816 19.2361 37.816 22.4695V40M7.942 16.626V11.1136C7.942 8.77624 10.048 6.88684 12.661 6.88684H28.3585C30.952 6.88684 33.058 8.77624 33.058 11.1136V16.626" stroke="black" stroke-width="2" stroke-linecap="round" stroke-linejoin="round"/>
<path d="M3.20386 23.8897L3.94057 23.9088C5.414 23.9279 6.58876 25.0743 6.58876 26.4882V27.1187C6.58876 27.8028 6.87196 28.4589 7.37606 28.9426C7.88016 29.4264 8.56387 29.6981 9.27678 29.6981C9.98968 29.6981 10.6734 29.4264 11.1775 28.9426C11.6816 28.4589 11.9648 27.8028 11.9648 27.1187V26.5264C11.9648 25.8423 12.248 25.1862 12.7521 24.7025C13.2562 24.2188 13.9399 23.947 14.6528 23.947C15.3657 23.947 16.0494 24.2188 16.5535 24.7025C17.0576 25.1862 17.3408 25.8423 17.3408 26.5264V27.1187C17.3408 27.8028 17.624 28.4589 18.1281 28.9426C18.6322 29.4264 19.3159 29.6981 20.0288 29.6981C20.7417 29.6981 21.4254 29.4264 21.9295 28.9426C22.4336 28.4589 22.7168 27.8028 22.7168 27.1187V26.5264C22.7168 25.8423 23 25.1862 23.5041 24.7025C24.0082 24.2188 24.692 23.947 25.4049 23.947C26.1178 23.947 26.8015 24.2188 27.3056 24.7025C27.8097 25.1862 28.0929 25.8423 28.0929 26.5264V27.1187C28.0929 27.8028 28.3761 28.4589 28.8802 28.9426C29.3843 29.4264 30.068 29.6981 30.7809 29.6981C31.4938 29.6981 32.1775 29.4264 32.6816 28.9426C33.1857 28.4589 33.4689 27.8028 33.4689 27.1187V26.5264C33.4689 25.1125 34.6636 23.947 36.1569 23.947H37.0529M12.1042 6.73198V2.91066M28.0331 6.73198V2.91066M20.0687 6.73198V1" stroke="black" stroke-width="2" stroke-linecap="round" stroke-linejoin="round"/>
</svg>
