<svg width="36" height="43" viewBox="0 0 36 43" fill="none" xmlns="http://www.w3.org/2000/svg">
<path d="M20.5364 0.652588L20.5362 0.65217C20.4211 0.433741 20.3042 0.300655 20.1563 0.219104C20.0067 0.136604 19.8128 0.0998173 19.5294 0.0998173C19.3324 0.0998173 19.2008 0.110244 19.0994 0.134427C19.0017 0.157727 18.9294 0.19446 18.8525 0.252897C18.6771 0.39334 18.5756 0.521051 18.5138 0.713844C18.4496 0.914314 18.4263 1.19072 18.4263 1.63441C18.4263 2.12859 18.4605 2.42762 18.556 2.63367C18.6473 2.83051 18.8004 2.95395 19.0797 3.07772C19.6562 3.32334 20.2468 3.12427 20.5365 2.58291L20.6247 2.6301L20.5364 2.58304C20.5776 2.50589 20.6131 2.37058 20.6377 2.19491C20.6618 2.02224 20.674 1.82057 20.674 1.61781C20.674 1.41505 20.6618 1.21338 20.6377 1.04072C20.6131 0.865044 20.5776 0.729733 20.5364 0.652588Z" fill="black" stroke="white" stroke-width="0.2"/>
<path d="M7.6345 3.9756L7.63381 3.97604C7.50917 4.05393 7.33469 4.19642 7.24746 4.28304C7.21638 4.31954 7.18396 4.38001 7.15477 4.46221C7.12547 4.54472 7.10165 4.64277 7.08529 4.74687C7.05235 4.95653 7.05152 5.17846 7.08873 5.33572C7.09434 5.35683 7.11155 5.39434 7.14544 5.44885C7.17849 5.502 7.22328 5.56489 7.27743 5.63455C7.38564 5.77377 7.52766 5.93553 7.67896 6.09348C7.83021 6.25141 7.98931 6.40405 8.13129 6.52535C8.27662 6.64951 8.39425 6.73222 8.46466 6.76072L8.46468 6.76069L8.46697 6.76169C9.05234 7.01586 9.69072 6.79102 9.9557 6.26106L9.9557 6.26106L9.95605 6.26037C10.0572 6.06199 10.0996 5.87448 10.0874 5.68896C10.0753 5.50305 10.0079 5.31167 9.87787 5.10668C9.74304 4.89656 9.49864 4.62299 9.24829 4.38599C9.12369 4.26802 8.99936 4.16078 8.88873 4.07642C8.77609 3.99053 8.68418 3.93346 8.62323 3.90976L8.62312 3.90972C8.46897 3.84956 8.2829 3.8259 8.10222 3.83853C7.92095 3.8512 7.75369 3.89975 7.6345 3.9756Z" fill="black" stroke="white" stroke-width="0.2"/>
<path d="M30.4505 3.97693L30.4496 3.97748C30.2722 4.08549 29.9632 4.3765 29.6851 4.67948C29.5476 4.82935 29.4206 4.97887 29.3244 5.10539C29.2763 5.16871 29.2368 5.22517 29.2077 5.2723C29.1777 5.32081 29.1631 5.35268 29.1586 5.36917C28.9652 6.15303 29.4931 6.8704 30.2234 6.8704C30.4213 6.8704 30.5605 6.84687 30.7085 6.77472C30.8609 6.70044 31.0284 6.57189 31.2767 6.34844L31.2769 6.34823C31.7037 5.96659 31.9637 5.63301 32.0809 5.32514C32.1958 5.02318 32.1759 4.73923 32.026 4.44338L32.0258 4.44292C31.744 3.87941 30.971 3.65259 30.4505 3.97693Z" fill="black" stroke="white" stroke-width="0.2"/>
<path d="M7.40695 37.048C6.46104 36.7659 5.59811 35.8615 5.34919 34.8907C5.24132 34.4758 4.88453 29.207 4.88453 28.0702L7.40695 37.048ZM7.40695 37.048C7.96287 37.214 8.61007 37.2057 10.0704 37.0065M7.40695 37.048L10.0704 37.0065M16.4042 8.39868L16.4037 8.39843C15.5112 7.96294 14.5478 8.06141 13.7368 8.55428C12.9269 9.04638 12.2695 9.9303 11.9733 11.0685L11.9733 11.0686C11.4115 13.239 12.4751 15.5482 15.2189 18.2837C16.2683 19.3331 17.708 20.5398 18.8577 21.348C18.8578 21.348 18.8579 21.3481 18.858 21.3481L19.4051 21.7378L19.4635 21.7793L19.5216 21.7374L20.1766 21.2648C20.1767 21.2647 20.1768 21.2647 20.1769 21.2646C22.6388 19.5096 25.0738 17.0772 26.0876 15.3512C26.7477 14.2317 27.1301 13.1105 27.1386 12.2563L27.1386 12.2553C27.1386 11.7128 27.0002 11.1006 26.7715 10.5326C26.5429 9.96471 26.2211 9.43378 25.8485 9.0569L25.8477 9.05602C25.5304 8.74298 25.2216 8.51883 24.8834 8.3736C24.5451 8.22831 24.183 8.16436 23.762 8.16428M16.4042 8.39868L23.7612 8.26427M16.4042 8.39868C17.2371 8.81081 17.8652 9.57203 18.2947 10.6748M16.4042 8.39868L16.3599 8.48831C17.1647 8.88658 17.7787 9.62505 18.2019 10.712M23.762 8.16428C23.7617 8.16428 23.7614 8.16428 23.7612 8.16428V8.26427M23.762 8.16428C23.7622 8.16428 23.7624 8.16428 23.7626 8.16428L23.7612 8.26427M23.762 8.16428C23.4675 8.16014 23.275 8.16601 23.094 8.20488C22.9123 8.2439 22.7474 8.31503 22.5063 8.43144L22.5054 8.43188C21.6222 8.86918 20.9179 9.74791 20.5628 10.8555M23.7612 8.26427C23.172 8.25598 23.031 8.28917 22.5497 8.5215C21.6951 8.94466 21.0064 9.7993 20.6579 10.8863M20.5628 10.8555C20.5628 10.8554 20.5628 10.8553 20.5629 10.8553L20.6579 10.8863M20.5628 10.8555C20.5627 10.8556 20.5627 10.8557 20.5627 10.8557L20.6579 10.8863M20.5628 10.8555C20.5076 11.0245 20.3751 11.2074 20.2065 11.3583C20.0379 11.5091 19.8447 11.6177 19.6774 11.6508M20.6579 10.8863C20.5335 11.2679 20.0771 11.6745 19.6954 11.7492M19.6954 11.7492L19.6786 11.6506C19.6782 11.6507 19.6778 11.6507 19.6774 11.6508M19.6954 11.7492C19.3552 11.8073 18.7578 11.6164 18.5421 11.3758C18.4674 11.2928 18.3181 10.9941 18.2019 10.712M19.6954 11.7492L19.6762 11.6511C19.6766 11.651 19.677 11.6509 19.6774 11.6508M19.6774 11.6508C19.5297 11.6757 19.3135 11.6473 19.1028 11.5793C18.8904 11.5109 18.707 11.41 18.6165 11.3091L18.6164 11.3089C18.5893 11.2787 18.5387 11.1952 18.4767 11.0733C18.4169 10.9558 18.3518 10.8134 18.2947 10.6748M18.2947 10.6748C18.2948 10.6751 18.295 10.6754 18.2951 10.6757L18.2019 10.712M18.2947 10.6748C18.2946 10.6745 18.2945 10.6742 18.2944 10.6739L18.2019 10.712M14.3214 20.6049L14.3209 20.6044L13.599 19.9241L13.5701 19.8968H13.5304H9.58917C8.06256 19.8968 7.07189 19.903 6.45437 19.9186C6.14594 19.9264 5.92854 19.9366 5.78331 19.9497C5.71101 19.9563 5.65376 19.9638 5.61098 19.9728C5.5897 19.9773 5.56929 19.9828 5.55126 19.9898C5.53568 19.9958 5.51029 20.0073 5.49018 20.03L5.48308 20.0379L5.48355 20.0383C5.46981 20.0575 5.41514 20.149 5.3334 20.2879C5.24963 20.4302 5.13361 20.629 4.99405 20.8698C4.7149 21.3513 4.34137 22.0008 3.94295 22.7022L2.48273 25.2576L2.39723 25.4072H2.56955H4.49455C5.35469 25.4072 5.84015 25.4114 6.14281 25.4329C6.44158 25.454 6.55038 25.4914 6.66188 25.5525L6.66255 25.5529C6.92655 25.695 7.05344 25.7988 7.12824 25.9889C7.20846 26.1928 7.23221 26.503 7.24058 27.076L7.24058 27.076C7.24892 27.6346 7.34034 29.4706 7.43987 31.1626C7.53496 32.8742 7.58501 33.7507 7.68367 34.2026C7.73299 34.4285 7.79919 34.5743 7.91218 34.66C8.02055 34.7422 8.15564 34.7541 8.28735 34.7657L8.2926 34.7661C8.34283 34.7714 8.44563 34.7667 8.57633 34.7571C8.71135 34.7471 8.88691 34.7309 9.09009 34.7101C9.49661 34.6685 10.016 34.6083 10.5475 34.5419L10.5481 34.5418C11.6261 34.4003 12.9338 34.1591 14.0582 33.9097C14.6205 33.7849 15.1379 33.658 15.5584 33.5401C15.976 33.4231 16.3055 33.3131 16.4876 33.2211M14.3214 20.6049L24.5477 20.6455L25.3191 19.9238L25.348 19.8968H25.3875H29.2043C30.2501 19.8968 31.2027 19.903 31.8941 19.9134C32.2397 19.9186 32.5206 19.9249 32.7154 19.9319C32.8125 19.9354 32.8894 19.9392 32.9424 19.9432C32.9686 19.9451 32.9911 19.9473 33.0081 19.9499C33.0159 19.9511 33.0267 19.953 33.0372 19.9562C33.0417 19.9576 33.0525 19.9611 33.064 19.9683L33.0642 19.9684C33.0697 19.9718 33.1128 19.9983 33.1128 20.0549C33.1128 20.0671 33.1107 20.0862 33.1088 20.1033C33.1065 20.1232 33.1031 20.1497 33.099 20.1815C33.0906 20.2452 33.0786 20.3322 33.0641 20.4359C33.0484 20.5481 33.0296 20.6804 33.0092 20.8248C32.9918 20.9475 32.9732 21.0788 32.9542 21.2139L32.9541 21.2146C32.3619 25.2181 30.7739 28.0099 28.0396 29.8132L28.0396 29.8132C27.331 30.28 27.2009 30.406 27.0983 30.6547C27.0477 30.7852 27.0142 30.9879 26.9955 31.6637C26.9768 32.3362 26.9727 33.463 26.9727 35.43V39.9106V40.0106H26.8727H20.4422H14.0117H13.9117V39.9106V38.1433V36.3759V36.2964L13.9892 36.2785L15.1754 36.0048C15.1755 36.0047 15.1755 36.0047 15.1756 36.0047C16.7659 35.632 17.2261 35.4689 17.917 35.0462C18.4569 34.7108 18.8133 34.4202 19.1917 33.9053C19.5738 33.3853 19.9788 32.6358 20.61 31.3775L20.6101 31.3774C20.9832 30.6353 21.2604 30.0602 21.4441 29.6485C21.536 29.4425 21.6039 29.2787 21.6486 29.156C21.671 29.0946 21.6871 29.0447 21.6975 29.0058C21.7084 28.9651 21.7113 28.9425 21.7113 28.9331C21.7113 28.7714 21.6416 28.5699 21.5251 28.3823C21.4089 28.1952 21.2544 28.0353 21.0994 27.9505L21.0986 27.95C20.9123 27.8457 20.7343 27.8145 20.4847 27.8379L20.4837 27.838C20.3107 27.8524 20.1875 27.8712 20.0775 27.9207C19.9697 27.9691 19.8663 28.0509 19.7438 28.2059C19.4936 28.5224 19.1857 29.1142 18.6149 30.2557C18.0642 31.3613 17.7246 32.0079 17.4287 32.4232C17.1274 32.8461 16.869 33.0324 16.4876 33.2211M14.3214 20.6049C15.2294 21.4717 16.9176 22.8124 18.1004 23.6147L18.1006 23.6149M14.3214 20.6049L18.1006 23.6149M16.4876 33.2211C16.4877 33.221 16.4879 33.2209 16.488 33.2209L16.4428 33.1316L16.4872 33.2213C16.4873 33.2212 16.4874 33.2211 16.4876 33.2211ZM18.1006 23.6149C18.6237 23.9719 18.9729 24.1707 19.2496 24.2518M18.1006 23.6149L19.2496 24.2518M10.0704 37.0065C10.7425 36.9153 11.3482 36.8406 11.4063 36.8406C11.4893 36.8406 11.5142 37.3218 11.5391 39.1971M10.0704 37.0065L11.5391 39.1971M11.5391 39.1971C11.564 41.4291 11.5723 41.5701 11.7382 41.7858M11.5391 39.1971L11.7382 41.7858M11.7382 41.7858C11.8295 41.9103 12.012 42.0929 12.1365 42.1841L11.7382 41.7858ZM19.2496 24.2518C19.5158 24.3299 19.7156 24.2993 19.9484 24.1811M19.2496 24.2518L19.9484 24.1811M19.9484 24.1811C20.3626 23.9657 21.1855 23.3863 22.0729 22.7044C22.9582 22.0241 23.8993 21.2484 24.5475 20.6457L19.9484 24.1811ZM10.3503 8.97362L10.35 8.97422C10.0322 9.58503 9.84372 10.0326 9.73445 10.5192C9.62498 11.0068 9.59376 11.539 9.5979 12.3212V12.3217C9.5979 12.9374 9.60218 13.2755 9.63252 13.5415C9.66243 13.8037 9.71783 13.997 9.82514 14.3231C10.0961 15.1361 10.5653 16.1074 11.0752 16.8887L11.0754 16.889L11.4405 17.4533L11.5403 17.6076H11.3565H8.02096C6.44315 17.6076 5.60805 17.6097 5.12758 17.6314C4.65018 17.6529 4.53772 17.6932 4.39823 17.763L4.39664 17.7638C4.31024 17.8051 4.21138 17.8706 4.12296 17.9443C4.0336 18.0188 3.96194 18.0957 3.92439 18.1572L3.92444 18.1572L3.92242 18.1603C3.69679 18.5007 2.80715 20.0502 1.95347 21.5654C1.5273 22.3218 1.11106 23.068 0.792615 23.6477C0.633371 23.9377 0.498734 24.1857 0.399588 24.3725C0.298716 24.5625 0.238321 24.6823 0.223391 24.7209C-0.162449 25.721 0.389719 27.004 1.43353 27.49C1.75008 27.6367 1.9491 27.6548 3.33472 27.6798L3.33505 27.6798L4.88667 27.713L4.98453 27.7151V27.813V28.0702C4.98453 28.6345 5.07343 30.2322 5.17618 31.7444C5.2275 32.4996 5.28217 33.232 5.33072 33.8013C5.355 34.086 5.37771 34.3295 5.39768 34.5144C5.41803 34.703 5.43475 34.8224 5.44597 34.8655L5.44605 34.8659C5.68641 35.8033 6.52388 36.6803 7.43553 36.9522L7.43555 36.9522C7.96836 37.1112 8.59555 37.1067 10.0569 36.9075L10.057 36.9074C10.3933 36.8618 10.7132 36.8202 10.9563 36.7901C11.0779 36.775 11.1805 36.7628 11.2565 36.7543C11.3287 36.7462 11.3847 36.7406 11.4063 36.7406C11.4746 36.7406 11.5099 36.7924 11.5237 36.8191C11.539 36.8489 11.549 36.8863 11.5567 36.9261C11.5725 37.0077 11.5844 37.1324 11.5943 37.3101C11.6142 37.6673 11.6266 38.2586 11.6391 39.1957L11.6391 39.1959C11.6515 40.3139 11.6598 40.9029 11.6854 41.24C11.6982 41.4084 11.715 41.507 11.736 41.5744C11.7559 41.6379 11.7804 41.6767 11.8175 41.7249L11.8175 41.7249L11.8188 41.7267C11.9041 41.8429 12.0794 42.0182 12.1956 42.1035L12.1956 42.1034L12.1979 42.1052C12.2244 42.1258 12.2418 42.1384 12.2684 42.1499C12.2964 42.162 12.3393 42.1747 12.4156 42.1864C12.5701 42.2102 12.8413 42.2273 13.3607 42.2397C14.3943 42.2645 16.3883 42.2708 20.3428 42.2832L20.3678 42.2833C20.3678 42.2833 20.3678 42.2833 20.3678 42.2833C20.3678 42.2833 20.3678 42.2833 20.3678 42.2833C20.7617 42.2844 21.1371 42.2855 21.4949 42.2865C25.1676 42.2973 26.9829 42.3027 27.9205 42.2471C28.4388 42.2164 28.6704 42.1675 28.7974 42.1019C28.8904 42.0538 28.9269 41.9999 28.9906 41.9057C29.0095 41.8779 29.0308 41.8464 29.0566 41.8106C29.0566 41.8105 29.0567 41.8104 29.0568 41.8104L29.2207 41.5793L29.2619 36.707L29.3034 31.7949L29.3038 31.7449L29.344 31.7153L30.0071 31.2263C30.0073 31.2261 30.0074 31.226 30.0076 31.2259C31.4957 30.1076 32.8877 28.3949 33.7522 26.5753L33.7523 26.575C34.7329 24.5231 35.369 21.7413 35.4269 19.2317C35.4353 18.7465 35.4234 18.4839 35.3542 18.295C35.2882 18.1148 35.1662 17.9927 34.9114 17.8036C34.8621 17.7671 34.8246 17.743 34.7442 17.7227C34.6574 17.7007 34.5211 17.6837 34.275 17.6707C33.7842 17.645 32.8849 17.6367 31.1369 17.6242C31.1369 17.6242 31.1369 17.6242 31.1369 17.6242L27.5358 17.5993L27.3479 17.598L27.4539 17.4429L27.7936 16.9458C27.7937 16.9456 27.7938 16.9455 27.7939 16.9454C28.2459 16.2713 28.8879 14.978 29.0918 14.2929L29.0921 14.2921C29.5011 12.9588 29.5011 11.5188 29.092 10.177C27.9948 6.59909 24.5203 4.8846 21.4822 6.38742L21.4821 6.38745C20.8369 6.70597 20.1599 7.22072 19.7719 7.68149L19.7713 7.68216L19.5722 7.91448L19.504 7.99406L19.4277 7.92219L18.8552 7.38287L18.8548 7.38246C17.8088 6.38551 16.7444 5.91543 15.4184 5.85838C14.9178 5.842 14.4537 5.87508 14.1157 5.94749C13.827 6.01178 13.2794 6.21561 12.8942 6.40412C11.9194 6.8834 10.8889 7.92084 10.3503 8.97362Z" fill="black" stroke="white" stroke-width="0.2"/>
<path d="M4.76055 12.6376L4.76055 12.6376H4.75901C4.57992 12.6376 4.39444 12.6478 4.23987 12.6631C4.08325 12.6785 3.96944 12.6982 3.92327 12.7141C3.68282 12.8127 3.40227 13.0759 3.26281 13.339C3.03233 13.7858 3.21672 14.429 3.68618 14.7446C3.80227 14.822 3.88673 14.8628 4.02703 14.8868C4.17483 14.9121 4.38394 14.9186 4.75071 14.9186C5.44035 14.9186 5.61356 14.8838 5.81103 14.7669C6.57359 14.3012 6.53539 13.2131 5.7506 12.8009C5.60807 12.7297 5.49336 12.6881 5.35128 12.6643C5.20623 12.6399 5.02925 12.6335 4.76055 12.6376Z" fill="black" stroke="white" stroke-width="0.2"/>
<path d="M34.2981 12.6293C33.7757 12.6293 33.5767 12.6698 33.306 12.8011C32.5216 13.2136 32.4837 14.3016 33.2464 14.7671C33.3286 14.8166 33.4751 14.8594 33.6667 14.8891C33.8551 14.9182 34.076 14.933 34.2981 14.933C34.5202 14.933 34.7411 14.9182 34.9295 14.8891C35.1211 14.8594 35.2677 14.8166 35.3498 14.7671C36.1126 14.3016 36.0746 13.2136 35.2902 12.8011C35.0195 12.6698 34.8206 12.6293 34.2981 12.6293Z" fill="black" stroke="white" stroke-width="0.2"/>
</svg>
