<svg width="41" height="39" viewBox="0 0 41 39" fill="none" xmlns="http://www.w3.org/2000/svg">
<path d="M18.8063 0.310093L18.8079 0.309925C18.8902 0.301262 19.1687 0.295349 19.5435 0.293362C19.9216 0.291355 20.4048 0.293362 20.9019 0.30138C22.9512 0.333527 24.0327 0.478588 25.7556 0.95359C28.9995 1.84707 31.9055 3.53757 34.304 5.92799L34.3047 5.92876C34.7457 6.37775 35.3329 7.01301 35.6004 7.3453C40.4132 13.2929 41.3155 21.2065 37.9585 27.9528L37.9584 27.9529C36.0188 31.84 33.0642 34.7947 29.1769 36.7263C26.4722 38.0706 23.5982 38.7387 20.54 38.7387C19.3163 38.7387 17.9969 38.6079 16.8083 38.3897C15.6213 38.1718 14.5577 37.8654 13.8488 37.5109L13.8485 37.5108C11.1803 36.1645 10.0642 32.7573 11.4095 30.0661C11.4893 29.9025 11.6894 29.5847 11.9428 29.2087C12.1979 28.8301 12.511 28.3865 12.8201 27.969C14.106 26.225 14.3027 25.8787 14.3789 25.2692L14.379 25.2686C14.5806 23.7327 13.6988 22.3933 12.1922 21.9584L12.1919 21.9583C11.8224 21.8505 11.5257 21.8173 10.9942 21.9117C10.4552 22.0075 9.68103 22.2335 8.35816 22.6464C8.35808 22.6464 8.35799 22.6464 8.3579 22.6464L5.99587 23.3911L5.98119 23.3957H5.9658H5.00536C4.59727 23.3997 4.33496 23.3938 4.12432 23.3669C3.91041 23.3395 3.75205 23.2906 3.55133 23.2128L3.55133 23.2128L3.55009 23.2123C2.53105 22.8014 1.6215 21.8674 1.24335 20.8316L1.24335 20.8316L1.24308 20.8308C1.13388 20.5242 1.06735 20.0517 1.0422 19.5016C1.01695 18.949 1.03314 18.3097 1.09358 17.6649L1.09365 17.6642C1.7779 10.8539 6.0925 4.8653 12.3709 2.02393L12.371 2.02388C14.4236 1.09821 16.1633 0.631439 18.8063 0.310093ZM14.4981 36.3788L14.4988 36.3791C14.7695 36.5144 15.2476 36.6745 15.8232 36.8284C16.3967 36.9817 17.0603 37.1272 17.6978 37.2348C18.2895 37.3334 19.4272 37.3835 20.567 37.3835C21.7071 37.3835 22.8344 37.3334 23.4057 37.2349C25.4144 36.8841 27.0385 36.3506 28.7669 35.4745C33.9513 32.8384 37.4872 27.9969 38.459 22.2062C38.6336 21.1585 38.6975 18.9336 38.5863 17.8207C38.1402 13.5278 36.2369 9.60983 33.139 6.62336C30.4552 4.04317 27.2305 2.42653 23.446 1.77318C22.9297 1.68651 21.8977 1.63046 20.8539 1.61544C19.8099 1.60043 18.7677 1.62667 18.2316 1.70158L18.2313 1.70161C15.904 2.02042 13.8654 2.66563 11.8985 3.70882C7.12782 6.24948 3.72757 10.781 2.66853 15.9963C2.47342 16.9679 2.36605 17.9529 2.35016 18.7832C2.34221 19.1984 2.35717 19.5735 2.39501 19.8879C2.43302 20.2039 2.49338 20.452 2.57247 20.6177C2.85034 21.1886 3.45609 21.7545 3.99988 21.9692C4.21909 22.0521 4.40059 22.1086 4.59332 22.1356C4.78567 22.1626 4.99367 22.1607 5.26489 22.1217C5.81206 22.0429 6.60241 21.8156 8.01858 21.3823L8.01874 21.3823C8.70408 21.1738 9.37958 20.9774 9.91707 20.829C10.4501 20.6818 10.8573 20.579 10.9987 20.5619L10.9996 20.5618C12.6184 20.381 14.4352 21.3471 15.2069 22.7921L15.207 22.7922C15.8541 24.0045 15.8881 25.5284 15.296 26.6962L15.2955 26.6972C15.2438 26.7963 15.061 27.0708 14.8135 27.4268C14.5637 27.7858 14.243 28.2349 13.9102 28.6879C13.5824 29.1396 13.2608 29.5951 13.0083 29.9664C12.7529 30.3418 12.575 30.6217 12.5274 30.7278L12.5269 30.7289C11.5643 32.8106 12.4578 35.3781 14.4981 36.3788Z" fill="black" stroke="black" stroke-width="0.2"/>
<path d="M19.4123 3.9417L19.4122 3.94173C19.1578 4.02379 18.7911 4.18666 18.5921 4.30269C18.3638 4.43383 18.0779 4.68189 17.8242 4.94668C17.5706 5.21137 17.3385 5.50394 17.2238 5.72912C16.6321 6.88783 16.6643 8.29343 17.3147 9.39671C17.4453 9.61988 17.6645 9.8773 17.9102 10.1138C18.1563 10.3508 18.4348 10.5723 18.6874 10.7215L18.6879 10.7217L18.6879 10.7217C19.7369 11.333 21.2074 11.3314 22.3252 10.7234C22.5707 10.5921 22.8732 10.3375 23.1421 10.0615C23.4113 9.78526 23.6572 9.47678 23.7839 9.23187L23.7841 9.23146C24.3354 8.15365 24.3351 6.82258 23.7762 5.7292L19.4123 3.9417ZM19.4123 3.9417C20.3378 3.64424 21.5361 3.79294 22.4079 4.30272M19.4123 3.9417L22.4079 4.30272M22.4079 4.30272C22.6362 4.43388 22.9221 4.68191 23.1757 4.94668C23.4293 5.21135 23.6614 5.5039 23.7761 5.72907L22.4079 4.30272ZM18.5254 6.12597L18.5254 6.12597L18.5247 6.127C18.3685 6.35738 18.2679 6.55619 18.2056 6.7678C18.1431 6.97976 18.1175 7.2097 18.1175 7.50428C18.1175 9.60817 20.6917 10.6707 22.191 9.17921C23.3128 8.0574 23.0361 6.13507 21.6456 5.37412C21.4694 5.28012 21.3439 5.22645 21.1996 5.19223C21.0535 5.15758 20.8837 5.1418 20.6167 5.12982C20.4437 5.12592 20.2588 5.12987 20.1008 5.13969C19.9397 5.14969 19.8166 5.16526 19.7603 5.18161C19.5591 5.24516 19.3136 5.38408 19.0841 5.55886C18.8545 5.73378 18.6494 5.93813 18.5254 6.12597Z" fill="black" stroke="black" stroke-width="0.2"/>
<path d="M29.6361 9.86021L29.6364 9.8601C29.9315 9.75895 30.3343 9.71252 30.7437 9.71556C31.1539 9.71862 31.5802 9.77144 31.9239 9.87496L31.9239 9.87495L31.9251 9.87533C32.2293 9.97117 32.5724 10.1506 32.8822 10.3615C33.1917 10.5722 33.4751 10.8194 33.656 11.0549L33.6563 11.0553C35.1184 12.9774 34.4883 15.7183 32.3541 16.7237L32.354 16.7237C32.0744 16.8553 31.6178 17.0022 31.3362 17.0519C30.2611 17.2503 28.9713 16.8298 28.1648 16.0233C26.1812 14.0397 26.9578 10.7886 29.6361 9.86021ZM32.9098 12.3759L32.9095 12.3752C32.6473 11.8124 32.1146 11.3212 31.6155 11.1547C31.2198 11.0255 30.8832 10.9746 30.5627 11.0003C30.2426 11.0259 29.9318 11.1285 29.5886 11.3157L29.5883 11.3159C28.1701 12.0825 27.9509 14.0416 29.1522 15.1584C30.1044 16.0336 31.5487 15.9893 32.481 15.057C33.1543 14.3837 33.333 13.2685 32.9098 12.3759Z" fill="black" stroke="black" stroke-width="0.2"/>
<path d="M13.9551 15.2991L13.9551 15.2991C14.7455 13.1997 13.4535 10.8547 11.2559 10.3935C10.9266 10.3212 10.6997 10.2831 10.4722 10.2831C10.2445 10.2831 10.0214 10.3213 9.69984 10.3936C9.69974 10.3936 9.69963 10.3937 9.69953 10.3937L9.72148 10.4912C6.93476 11.0998 5.92578 14.5272 7.94375 16.5451L13.9551 15.2991ZM13.9551 15.2991C13.0008 17.833 9.77449 18.5336 7.87287 16.6157L13.9551 15.2991ZM12.7164 12.8856L12.6278 12.932C12.382 12.4633 11.9025 12.0151 11.4273 11.8081L11.4273 11.8081L11.4264 11.8077C10.7769 11.5174 9.98422 11.5612 9.2873 11.9252L9.28649 11.9256C9.11647 12.0124 8.88666 12.2222 8.67793 12.4705C8.46979 12.7181 8.29693 12.9869 8.23071 13.1817C8.1551 13.4087 8.11582 13.7095 8.11582 14.0147C8.11582 14.3198 8.15508 14.6205 8.23066 14.8475C8.3129 15.0864 8.48777 15.3548 8.71372 15.5983C8.93937 15.8414 9.20997 16.0533 9.47689 16.1829L9.477 16.183C10.3746 16.6203 11.5515 16.3964 12.2098 15.6692C12.4668 15.3846 12.6193 15.1673 12.7099 14.9273C12.8007 14.6868 12.8326 14.4148 12.8326 14.0147C12.8326 13.7021 12.8244 13.5167 12.7954 13.367C12.7671 13.2208 12.718 13.1046 12.6278 12.9319L12.7164 12.8856ZM12.7164 12.8856C12.9006 13.2379 12.9326 13.3901 12.9326 14.0147C12.9326 14.8235 12.8045 15.1598 12.284 15.7364L9.24101 11.8366C9.96171 11.4602 10.7865 11.4121 11.4672 11.7164C11.9637 11.9326 12.4602 12.3971 12.7164 12.8856Z" fill="black" stroke="black" stroke-width="0.2"/>
<path d="M32.9522 26.8592L32.8646 26.8109C32.972 26.616 33.0256 26.5031 33.0554 26.3567C33.086 26.2062 33.0924 26.0162 33.0924 25.666C33.0924 25.3496 33.0842 25.153 33.0588 25.002C33.034 24.8551 32.9924 24.7495 32.9203 24.6167L32.9203 24.6167L32.9196 24.6153C32.6641 24.1276 32.3417 23.7981 31.8875 23.5518L31.8875 23.5518L31.8864 23.5512C31.7192 23.4578 31.5939 23.4042 31.4488 23.37C31.3014 23.3353 31.1292 23.3195 30.8656 23.3075C30.518 23.2917 30.2675 23.308 30.0425 23.3692C29.8184 23.4301 29.6127 23.5376 29.3577 23.7142C28.177 24.5344 28.0288 26.3108 29.067 27.349C30.1891 28.4711 32.096 28.202 32.8646 26.8108L32.9522 26.8592ZM32.9522 26.8592C33.1684 26.4668 33.1924 26.3627 33.1924 25.666C33.1924 25.0334 33.1604 24.8492 33.0082 24.5689L32.9522 26.8592ZM29.6624 22.1194L29.6629 22.1193C31.3854 21.5753 33.2771 22.4082 34.0988 24.0681L34.0992 24.0689C34.2201 24.3189 34.2959 24.4985 34.3445 24.694C34.3929 24.8888 34.4133 25.0948 34.4293 25.396C34.466 25.9747 34.4092 26.4771 34.2434 26.9381C34.0776 27.3992 33.8048 27.8133 33.4168 28.2176C32.7016 28.9656 31.7627 29.3695 30.75 29.3695L30.7495 29.3695C29.0538 29.3613 27.516 28.1363 27.1372 26.4813C26.7087 24.6274 27.8207 22.7114 29.6624 22.1194Z" fill="black" stroke="black" stroke-width="0.2"/>
<path d="M18.7455 27.2372L18.7459 27.237C19.0648 27.128 19.4837 27.0794 19.9053 27.0875C20.3272 27.0957 20.7608 27.1608 21.1099 27.2855C22.2121 27.6722 23.0765 28.5687 23.4063 29.6568C23.6691 30.5112 23.6128 31.5379 23.249 32.2991C22.5504 33.8026 20.8904 34.7094 19.3218 34.437C16.3792 33.9355 15.1584 30.4714 17.1587 28.2814C17.6108 27.7801 18.1057 27.4587 18.7455 27.2372ZM20.7502 28.5482L20.7494 28.5479C20.217 28.3756 19.8887 28.3462 19.4506 28.4154C18.6399 28.5455 17.8301 29.2548 17.5928 30.0508L17.5927 30.0513C17.1464 31.5209 18.1704 33.0348 19.6751 33.1578C21.4268 33.296 22.6973 31.6461 22.1268 29.942C22.033 29.6646 21.8233 29.3569 21.5649 29.0956C21.3062 28.8339 21.0094 28.6296 20.7502 28.5482Z" fill="black" stroke="black" stroke-width="0.2"/>
</svg>
