<svg width="38" height="38" viewBox="0 0 38 38" fill="none" xmlns="http://www.w3.org/2000/svg">
<path d="M28.1749 21.7531C27.4404 22.4929 27.0207 23.5575 27.1257 24.6942C27.283 26.6429 29.0143 28.0684 30.9029 28.0684H34.2254V30.2155C34.2254 33.9506 31.2701 36.9999 27.6503 36.9999H7.57513C3.95531 36.9999 1 33.9506 1 30.2155V18.0722C1 14.3372 3.95531 11.2878 7.57513 11.2878H27.6503C31.2701 11.2878 34.2254 14.3372 34.2254 18.0722V20.6705H30.693C29.7137 20.6705 28.8219 21.0675 28.1749 21.7531Z" stroke="black" stroke-width="2" stroke-linecap="round" stroke-linejoin="round"/>
<path d="M1 19.6968V11.4509C1 9.30375 2.27656 7.39113 4.21762 6.6333L18.1023 1.22023C18.6054 1.02461 19.147 0.957883 19.6806 1.02577C20.2141 1.09365 20.7238 1.29412 21.1658 1.60997C21.6077 1.92582 21.9688 2.34761 22.218 2.83914C22.4672 3.33067 22.5971 3.87726 22.5965 4.43198V11.2885M8.86918 18.9571H21.1101M36.0773 22.5116V26.2286C36.0773 27.221 35.3079 28.033 34.3286 28.0691H30.9011C29.0125 28.0691 27.2813 26.6436 27.1239 24.6949C27.019 23.5582 27.4387 22.4936 28.1731 21.7538C28.8202 21.0682 29.712 20.6712 30.6913 20.6712H34.3286C35.3079 20.7073 36.0773 21.5192 36.0773 22.5116Z" stroke="black" stroke-width="2" stroke-linecap="round" stroke-linejoin="round"/>
</svg>
